<svg width="200" height="200" viewBox="0 0 200 200" fill="none" xmlns="http://www.w3.org/2000/svg">
<rect width="200" height="200" fill="#FDFCFC"/>
<path d="M24.2617 64.8182H37.8981V78.4545H24.2617V64.8182ZM24.2617 78.4545H37.8981V92.0909H24.2617V78.4545ZM24.2617 92.0909H37.8981V105.727H24.2617V92.0909ZM24.2617 105.727H37.8981V119.364H24.2617V105.727ZM24.2617 119.364H37.8981V133H24.2617V119.364ZM37.8981 78.4545H51.5344V92.0909H37.8981V78.4545ZM51.5344 92.0909H65.1708V105.727H51.5344V92.0909ZM51.5344 105.727H65.1708V119.364H51.5344V105.727ZM51.5344 119.364H65.1708V133H51.5344V119.364ZM92.3903 78.4545H106.027V92.0909H92.3903V78.4545ZM106.027 92.0909H119.663V105.727H106.027V92.0909ZM78.7539 92.0909H92.3903V105.727H78.7539V92.0909ZM106.027 105.727H119.663V119.364H106.027V105.727ZM92.3903 105.727H106.027V119.364H92.3903V105.727ZM78.7539 105.727H92.3903V119.364H78.7539V105.727ZM78.7539 119.364H92.3903V133H78.7539V119.364ZM92.3903 133H106.027V146.636H92.3903V133ZM133.246 64.8182H146.882V78.4545H133.246V64.8182ZM133.246 78.4545H146.882V92.0909H133.246V78.4545ZM133.246 92.0909H146.882V105.727H133.246V92.0909ZM133.246 105.727H146.882V119.364H133.246V105.727ZM133.246 119.364H146.882V133H133.246V119.364ZM146.882 78.4545H160.519V92.0909H146.882V78.4545ZM160.519 92.0909H174.155V105.727H160.519V92.0909ZM160.519 105.727H174.155V119.364H160.519V105.727ZM146.882 119.364H160.519V133H146.882V119.364Z" fill="#EE2824"/>
</svg>
