<svg width="886" height="115" viewBox="0 0 886 115" fill="none" xmlns="http://www.w3.org/2000/svg">
<path d="M0 22.8182H13.6364V36.4545H0V22.8182ZM0 36.4545H13.6364V50.0909H0V36.4545ZM0 50.0909H13.6364V63.7273H0V50.0909ZM0 63.7273H13.6364V77.3636H0V63.7273ZM0 77.3636H13.6364V91H0V77.3636ZM13.6364 36.4545H27.2727V50.0909H13.6364V36.4545ZM27.2727 50.0909H40.9091V63.7273H27.2727V50.0909ZM27.2727 63.7273H40.9091V77.3636H27.2727V63.7273ZM27.2727 77.3636H40.9091V91H27.2727V77.3636ZM68.1286 36.4545H81.7649V50.0909H68.1286V36.4545ZM81.7649 50.0909H95.4013V63.7273H81.7649V50.0909ZM54.4922 50.0909H68.1286V63.7273H54.4922V50.0909ZM81.7649 63.7273H95.4013V77.3636H81.7649V63.7273ZM68.1286 63.7273H81.7649V77.3636H68.1286V63.7273ZM54.4922 63.7273H68.1286V77.3636H54.4922V63.7273ZM54.4922 77.3636H68.1286V91H54.4922V77.3636ZM68.1286 91H81.7649V104.636H68.1286V91ZM108.984 22.8182H122.621V36.4545H108.984V22.8182ZM108.984 36.4545H122.621V50.0909H108.984V36.4545ZM108.984 50.0909H122.621V63.7273H108.984V50.0909ZM108.984 63.7273H122.621V77.3636H108.984V63.7273ZM108.984 77.3636H122.621V91H108.984V77.3636ZM122.621 36.4545H136.257V50.0909H122.621V36.4545ZM136.257 50.0909H149.893V63.7273H136.257V50.0909ZM136.257 63.7273H149.893V77.3636H136.257V63.7273ZM122.621 77.3636H136.257V91H122.621V77.3636ZM163.477 50.0909H177.113V63.7273H163.477V50.0909ZM177.113 50.0909H190.749V63.7273H177.113V50.0909ZM190.749 50.0909H204.386V63.7273H190.749V50.0909ZM217.969 77.3636H231.605V91H217.969V77.3636ZM217.969 63.7273H231.605V77.3636H217.969V63.7273ZM217.969 50.0909H231.605V63.7273H217.969V50.0909ZM217.969 36.4545H231.605V50.0909H217.969V36.4545ZM231.605 36.4545H245.241V50.0909H231.605V36.4545ZM245.241 50.0909H258.878V63.7273H245.241V50.0909ZM245.241 63.7273H258.878V77.3636H245.241V63.7273ZM245.241 77.3636H258.878V91H245.241V77.3636ZM258.878 36.4545H272.514V50.0909H258.878V36.4545ZM272.514 50.0909H286.151V63.7273H272.514V50.0909ZM272.514 63.7273H286.151V77.3636H272.514V63.7273ZM272.514 77.3636H286.151V91H272.514V77.3636ZM313.49 36.4545H327.126V50.0909H313.49V36.4545ZM299.854 50.0909H313.49V63.7273H299.854V50.0909ZM299.854 63.7273H313.49V77.3636H299.854V63.7273ZM313.49 77.3636H327.126V91H313.49V77.3636ZM327.126 36.4545H340.763V50.0909H327.126V36.4545ZM327.126 77.3636H340.763V91H327.126V77.3636ZM354.346 36.4545H367.982V50.0909H354.346V36.4545ZM354.346 50.0909H367.982V63.7273H354.346V50.0909ZM354.346 63.7273H367.982V77.3636H354.346V63.7273ZM354.346 77.3636H367.982V91H354.346V77.3636ZM354.346 91H367.982V104.636H354.346V91ZM367.982 36.4545H381.618V50.0909H367.982V36.4545ZM381.618 50.0909H395.255V63.7273H381.618V50.0909ZM381.618 63.7273H395.255V77.3636H381.618V63.7273ZM367.982 77.3636H381.618V91H367.982V77.3636ZM408.838 50.0909H422.474V63.7273H408.838V50.0909ZM422.474 50.0909H436.111V63.7273H422.474V50.0909ZM436.111 50.0909H449.747V63.7273H436.111V50.0909ZM463.33 36.4545H476.966V50.0909H463.33V36.4545ZM463.33 50.0909H476.966V63.7273H463.33V50.0909ZM463.33 63.7273H476.966V77.3636H463.33V63.7273ZM476.966 77.3636H490.603V91H476.966V77.3636ZM490.603 77.3636H504.239V91H490.603V77.3636ZM490.603 63.7273H504.239V77.3636H490.603V63.7273ZM490.603 50.0909H504.239V63.7273H490.603V50.0909ZM490.603 36.4545H504.239V50.0909H490.603V36.4545ZM517.822 77.3636H531.459V91H517.822V77.3636ZM517.822 63.7273H531.459V77.3636H517.822V63.7273ZM517.822 50.0909H531.459V63.7273H517.822V50.0909ZM517.822 36.4545H531.459V50.0909H517.822V36.4545ZM531.459 36.4545H545.095V50.0909H531.459V36.4545ZM545.095 50.0909H558.731V63.7273H545.095V50.0909ZM545.095 63.7273H558.731V77.3636H545.095V63.7273ZM545.095 77.3636H558.731V91H545.095V77.3636ZM572.314 50.0909H585.951V63.7273H572.314V50.0909ZM572.314 63.7273H585.951V77.3636H572.314V63.7273ZM585.951 77.3636H599.587V91H585.951V77.3636ZM599.587 63.7273H613.224V77.3636H599.587V63.7273ZM599.587 50.0909H613.224V63.7273H599.587V50.0909ZM585.951 36.4545H599.587V50.0909H585.951V36.4545ZM626.807 36.4545H640.443V50.0909H626.807V36.4545ZM626.807 50.0909H640.443V63.7273H626.807V50.0909ZM626.807 63.7273H640.443V77.3636H626.807V63.7273ZM626.807 77.3636H640.443V91H626.807V77.3636ZM640.443 22.8182H654.079V36.4545H640.443V22.8182ZM640.443 50.0909H654.079V63.7273H640.443V50.0909ZM667.676 36.4545H681.312V50.0909H667.676V36.4545ZM667.676 50.0909H681.312V63.7273H667.676V50.0909ZM667.676 63.7273H681.312V77.3636H667.676V63.7273ZM667.676 77.3636H681.312V91H667.676V77.3636ZM681.312 22.8182H694.949V36.4545H681.312V22.8182ZM681.312 50.0909H694.949V63.7273H681.312V50.0909ZM708.545 77.3636H722.181V91H708.545V77.3636ZM708.545 63.7273H722.181V77.3636H708.545V63.7273ZM708.545 50.0909H722.181V63.7273H708.545V50.0909ZM708.545 22.8182H722.181V36.4545H708.545V22.8182ZM749.427 36.4545H763.064V50.0909H749.427V36.4545ZM735.791 50.0909H749.427V63.7273H735.791V50.0909ZM735.791 63.7273H749.427V77.3636H735.791V63.7273ZM749.427 77.3636H763.064V91H749.427V77.3636ZM763.064 36.4545H776.7V50.0909H763.064V36.4545ZM763.064 77.3636H776.7V91H763.064V77.3636ZM790.283 77.3636H803.92V91H790.283V77.3636ZM790.283 63.7273H803.92V77.3636H790.283V63.7273ZM790.283 50.0909H803.92V63.7273H790.283V50.0909ZM790.283 22.8182H803.92V36.4545H790.283V22.8182ZM844.802 36.4545H858.438V50.0909H844.802V36.4545ZM844.802 50.0909H858.438V63.7273H844.802V50.0909ZM844.802 63.7273H858.438V77.3636H844.802V63.7273ZM844.802 77.3636H858.438V91H844.802V77.3636ZM831.166 36.4545H844.802V50.0909H831.166V36.4545ZM831.166 77.3636H844.802V91H831.166V77.3636ZM817.529 50.0909H831.166V63.7273H817.529V50.0909ZM817.529 63.7273H831.166V77.3636H817.529V63.7273ZM872.021 22.8182H885.658V36.4545H872.021V22.8182ZM872.021 36.4545H885.658V50.0909H872.021V36.4545ZM872.021 50.0909H885.658V63.7273H872.021V50.0909ZM872.021 63.7273H885.658V77.3636H872.021V63.7273ZM872.021 77.3636H885.658V91H872.021V77.3636Z" fill="#FDFCFC"/>
</svg>
