<svg width="872" height="115" viewBox="0 0 872 115" fill="none" xmlns="http://www.w3.org/2000/svg">
<path d="M0 22.8182H13.6364V36.4545H0V22.8182ZM0 36.4545H13.6364V50.0909H0V36.4545ZM0 50.0909H13.6364V63.7273H0V50.0909ZM0 63.7273H13.6364V77.3636H0V63.7273ZM0 77.3636H13.6364V91H0V77.3636ZM13.6364 36.4545H27.2727V50.0909H13.6364V36.4545ZM27.2727 50.0909H40.9091V63.7273H27.2727V50.0909ZM27.2727 63.7273H40.9091V77.3636H27.2727V63.7273ZM27.2727 77.3636H40.9091V91H27.2727V77.3636ZM68.1286 36.4545H81.7649V50.0909H68.1286V36.4545ZM81.7649 50.0909H95.4013V63.7273H81.7649V50.0909ZM54.4922 50.0909H68.1286V63.7273H54.4922V50.0909ZM81.7649 63.7273H95.4013V77.3636H81.7649V63.7273ZM68.1286 63.7273H81.7649V77.3636H68.1286V63.7273ZM54.4922 63.7273H68.1286V77.3636H54.4922V63.7273ZM54.4922 77.3636H68.1286V91H54.4922V77.3636ZM68.1286 91H81.7649V104.636H68.1286V91ZM108.984 22.8182H122.621V36.4545H108.984V22.8182ZM108.984 36.4545H122.621V50.0909H108.984V36.4545ZM108.984 50.0909H122.621V63.7273H108.984V50.0909ZM108.984 63.7273H122.621V77.3636H108.984V63.7273ZM108.984 77.3636H122.621V91H108.984V77.3636ZM122.621 36.4545H136.257V50.0909H122.621V36.4545ZM136.257 50.0909H149.893V63.7273H136.257V50.0909ZM136.257 63.7273H149.893V77.3636H136.257V63.7273ZM122.621 77.3636H136.257V91H122.621V77.3636ZM163.477 50.0909H177.113V63.7273H163.477V50.0909ZM177.113 50.0909H190.749V63.7273H177.113V50.0909ZM190.749 50.0909H204.386V63.7273H190.749V50.0909ZM245.241 36.4545H258.878V50.0909H245.241V36.4545ZM231.605 36.4545H245.241V50.0909H231.605V36.4545ZM217.969 50.0909H231.605V63.7273H217.969V50.0909ZM245.241 63.7273H258.878V77.3636H245.241V63.7273ZM245.241 77.3636H258.878V91H245.241V77.3636ZM217.969 77.3636H231.605V91H217.969V77.3636ZM217.969 36.4545H231.605V50.0909H217.969V36.4545ZM231.605 77.3636H245.241V91H231.605V77.3636ZM299.734 22.8182H313.37V36.4545H299.734V22.8182ZM299.734 36.4545H313.37V50.0909H299.734V36.4545ZM299.734 50.0909H313.37V63.7273H299.734V50.0909ZM299.734 63.7273H313.37V77.3636H299.734V63.7273ZM299.734 77.3636H313.37V91H299.734V77.3636ZM286.097 36.4545H299.734V50.0909H286.097V36.4545ZM272.461 50.0909H286.097V63.7273H272.461V50.0909ZM272.461 63.7273H286.097V77.3636H272.461V63.7273ZM286.097 77.3636H299.734V91H286.097V77.3636ZM326.953 22.8182H340.589V36.4545H326.953V22.8182ZM326.953 36.4545H340.589V50.0909H326.953V36.4545ZM326.953 50.0909H340.589V63.7273H326.953V50.0909ZM326.953 63.7273H340.589V77.3636H326.953V63.7273ZM326.953 77.3636H340.589V91H326.953V77.3636ZM340.589 50.0909H354.226V63.7273H340.589V50.0909ZM354.226 36.4545H367.862V50.0909H354.226V36.4545ZM354.226 63.7273H367.862V77.3636H354.226V63.7273ZM354.226 77.3636H367.862V91H354.226V77.3636ZM381.445 50.0909H395.082V63.7273H381.445V50.0909ZM395.082 50.0909H408.718V63.7273H395.082V50.0909ZM408.718 50.0909H422.354V63.7273H408.718V50.0909ZM435.938 36.4545H449.574V50.0909H435.938V36.4545ZM435.938 50.0909H449.574V63.7273H435.938V50.0909ZM435.938 63.7273H449.574V77.3636H435.938V63.7273ZM449.574 77.3636H463.21V91H449.574V77.3636ZM463.21 77.3636H476.847V91H463.21V77.3636ZM463.21 63.7273H476.847V77.3636H463.21V63.7273ZM463.21 50.0909H476.847V63.7273H463.21V50.0909ZM463.21 36.4545H476.847V50.0909H463.21V36.4545ZM490.43 77.3636H504.066V91H490.43V77.3636ZM490.43 63.7273H504.066V77.3636H490.43V63.7273ZM490.43 50.0909H504.066V63.7273H490.43V50.0909ZM490.43 36.4545H504.066V50.0909H490.43V36.4545ZM504.066 36.4545H517.702V50.0909H504.066V36.4545ZM517.702 50.0909H531.339V63.7273H517.702V50.0909ZM517.702 63.7273H531.339V77.3636H517.702V63.7273ZM517.702 77.3636H531.339V91H517.702V77.3636ZM544.922 50.0909H558.558V63.7273H544.922V50.0909ZM544.922 63.7273H558.558V77.3636H544.922V63.7273ZM558.558 77.3636H572.195V91H558.558V77.3636ZM572.195 63.7273H585.831V77.3636H572.195V63.7273ZM572.195 50.0909H585.831V63.7273H572.195V50.0909ZM558.558 36.4545H572.195V50.0909H558.558V36.4545ZM599.414 36.4545H613.05V50.0909H599.414V36.4545ZM599.414 50.0909H613.05V63.7273H599.414V50.0909ZM599.414 63.7273H613.05V77.3636H599.414V63.7273ZM599.414 77.3636H613.05V91H599.414V77.3636ZM613.05 22.8182H626.687V36.4545H613.05V22.8182ZM613.05 50.0909H626.687V63.7273H613.05V50.0909ZM640.283 36.4545H653.92V50.0909H640.283V36.4545ZM640.283 50.0909H653.92V63.7273H640.283V50.0909ZM640.283 63.7273H653.92V77.3636H640.283V63.7273ZM640.283 77.3636H653.92V91H640.283V77.3636ZM653.92 22.8182H667.556V36.4545H653.92V22.8182ZM653.92 50.0909H667.556V63.7273H653.92V50.0909ZM681.152 77.3636H694.789V91H681.152V77.3636ZM681.152 63.7273H694.789V77.3636H681.152V63.7273ZM681.152 50.0909H694.789V63.7273H681.152V50.0909ZM681.152 22.8182H694.789V36.4545H681.152V22.8182ZM722.035 36.4545H735.671V50.0909H722.035V36.4545ZM708.398 50.0909H722.035V63.7273H708.398V50.0909ZM708.398 63.7273H722.035V77.3636H708.398V63.7273ZM722.035 77.3636H735.671V91H722.035V77.3636ZM735.671 36.4545H749.308V50.0909H735.671V36.4545ZM735.671 77.3636H749.308V91H735.671V77.3636ZM762.891 77.3636H776.527V91H762.891V77.3636ZM762.891 63.7273H776.527V77.3636H762.891V63.7273ZM762.891 50.0909H776.527V63.7273H762.891V50.0909ZM762.891 22.8182H776.527V36.4545H762.891V22.8182ZM817.409 36.4545H831.046V50.0909H817.409V36.4545ZM817.409 50.0909H831.046V63.7273H817.409V50.0909ZM817.409 63.7273H831.046V77.3636H817.409V63.7273ZM817.409 77.3636H831.046V91H817.409V77.3636ZM803.773 36.4545H817.409V50.0909H803.773V36.4545ZM803.773 77.3636H817.409V91H803.773V77.3636ZM790.137 50.0909H803.773V63.7273H790.137V50.0909ZM790.137 63.7273H803.773V77.3636H790.137V63.7273ZM844.629 22.8182H858.265V36.4545H844.629V22.8182ZM844.629 36.4545H858.265V50.0909H844.629V36.4545ZM844.629 50.0909H858.265V63.7273H844.629V50.0909ZM844.629 63.7273H858.265V77.3636H844.629V63.7273ZM844.629 77.3636H858.265V91H844.629V77.3636Z" fill="#EC1C24"/>
</svg>
